<?xml version="1.0" encoding="UTF-8"?>
<svg id="SVGRoot" width="1470.4" height="700" version="1.1" viewBox="0 0 1470.4 700" xmlns="http://www.w3.org/2000/svg" style="background-color:#F7BF4F">
 <path d="m350 200c-82.843 0-150 67.157-150 150s67.157 150 150 150 150-67.157 150-150-67.157-150-150-150zm90.321 203.42c0 0.0963-0.0272 0.18833-0.0376 0.28669-0.0189 0.15277-0.0314 0.30971-0.0649 0.46247-0.0314 0.1423-0.0732 0.2825-0.10676 0.40597-0.046 0.14857-0.0921 0.29088-0.14231 0.43317-0.0648 0.12975-0.12556 0.25949-0.19461 0.38296-0.069 0.12556-0.13393 0.24901-0.22601 0.37457-0.0774 0.11928-0.17159 0.23438-0.26367 0.34528-0.0921 0.10677-0.17578 0.21764-0.27623 0.3139-0.0963 0.10259-0.21136 0.1988-0.32226 0.29088-0.10259 0.0963-0.20718 0.18415-0.31808 0.26367-0.11928 0.0837-0.25321 0.15696-0.37877 0.226-0.12556 0.069-0.24484 0.12975-0.3683 0.19462-0.13812 0.0649-0.29088 0.10677-0.43317 0.15694-0.13393 0.0418-0.26368 0.0879-0.3976 0.1151-0.15696 0.0314-0.30972 0.0502-0.47085 0.069-0.11509 9e-3 -0.22182 0.0418-0.33692 0.046-0.0648 4e-3 -0.11509 4e-3 -0.17997 4e-3h-4e-3c-0.0502 0-0.0963 0-0.13811-4e-3l-84.305-2.733 2.5844 9.9921c0.023 0.0879 0.023 0.17578 0.0418 0.25949 0.0272 0.16532 0.0607 0.31809 0.0732 0.47922 0.0189 0.15695 9e-3 0.30971 9e-3 0.46666 0 0.0963 0.0146 0.18414 9e-3 0.28249-9e-3 0.0314-0.0272 0.0545-0.0272 0.0879-0.0502 0.50223-0.18833 0.98775-0.40178 1.4397-0.0272 0.0649-0.0545 0.13392-0.0921 0.1988-0.22183 0.42481-0.50852 0.80357-0.858 1.1405-0.0545 0.0502-0.10259 0.0963-0.16114 0.14858-0.35156 0.3097-0.75755 0.56711-1.2054 0.75756-0.0732 0.0314-0.14857 0.0545-0.22601 0.0837-0.12974 0.0502-0.25949 0.1109-0.3976 0.14857-0.36829 0.0963-0.73869 0.1381-1.107 0.1381-4e-3 0-4e-3 4e-3 -0.0146 4e-3h-8e-3c-0.11509 0-0.23019-4e-3 -0.35156-0.0189l-46.08-3.7019v22.056c0 0.11091-0.0231 0.21764-0.0314 0.32854-9e-3 0.1151 0 0.23019-0.0189 0.34529-4e-3 0.0231-0.023 0.046-0.023 0.069-0.0837 0.47921-0.24483 0.92706-0.46246 1.3476-0.0376 0.069-0.0732 0.13392-0.1151 0.20299-0.23437 0.39132-0.52107 0.74286-0.86218 1.0484-0.0607 0.0502-0.11508 0.0963-0.17996 0.14229-0.35575 0.2867-0.74706 0.52527-1.1823 0.69268-0.0545 0.0231-0.11091 0.0376-0.16532 0.0545-0.45619 0.15694-0.9375 0.26367-1.4439 0.26367h-0.0269c-0.21764 0-0.43945-0.0146-0.6592-0.0502l-34.472-5.2714c-0.0879-0.0146-0.1653-0.046-0.24901-0.0648-0.16114-0.0376-0.31809-0.0732-0.47921-0.12556-0.12975-0.046-0.25949-0.0963-0.38295-0.14858-0.1423-0.0648-0.2825-0.12556-0.41016-0.20298-0.12556-0.069-0.24484-0.14858-0.36413-0.23438-0.11508-0.0837-0.23437-0.16113-0.3411-0.25949-0.11508-0.0963-0.21763-0.19879-0.31807-0.29925-0.0963-0.10258-0.19461-0.20298-0.2825-0.31389-0.0921-0.11091-0.17578-0.23019-0.25322-0.35575-0.0774-0.11928-0.15277-0.24064-0.21763-0.35993-0.069-0.12975-0.12556-0.26786-0.18415-0.40598-0.0502-0.12974-0.10259-0.26366-0.1423-0.40179-0.0418-0.14229-0.0732-0.29086-0.0963-0.43945-0.0272-0.1423-0.0502-0.29087-0.0649-0.43318-0.0146-0.14857-0.0146-0.30552-0.0146-0.45618 4e-3 -0.0963-9e-3 -0.18834-4e-3 -0.2867l12.813-172.74c9e-3 -0.14229 0.0502-0.27204 0.0732-0.41016 0.0272-0.15276 0.0418-0.31808 0.0879-0.46665 0.0376-0.13392 0.0963-0.25321 0.14229-0.37877 0.0545-0.15276 0.10259-0.30552 0.17578-0.44782 0.0607-0.11091 0.13393-0.20717 0.1988-0.3139 0.0879-0.1381 0.1716-0.29088 0.27204-0.42062 0.0732-0.0963 0.16532-0.17159 0.24484-0.25949 0.11509-0.12556 0.22601-0.25321 0.35157-0.36412 0.0963-0.0879 0.20717-0.15276 0.31807-0.226 0.12557-0.0921 0.24903-0.19461 0.38296-0.27204 0.12556-0.0733 0.26785-0.11928 0.40178-0.18415 0.12974-0.0607 0.25321-0.12556 0.38295-0.17578 0.16113-0.0544 0.32854-0.0774 0.48967-0.11928 0.12557-0.023 0.24485-0.0649 0.3683-0.0837 0.16114-0.023 0.32227-0.0188 0.4855-0.023 0.13811-4e-3 0.27204-0.0272 0.40597-0.0188l153.55 9.9611c0.13811 4e-3 0.27203 0.046 0.40178 0.0649 0.0231 0 0.0502 9e-3 0.0732 0.0146 0.8768 0.15276 1.6532 0.54825 2.2705 1.1174 0.0188 9e-3 0.0314 0.0272 0.046 0.0376 0.17578 0.16532 0.33691 0.3411 0.48549 0.53571 0.046 0.0648 0.0921 0.12975 0.13392 0.19462 0.10259 0.15695 0.203 0.3139 0.29088 0.47922 0.0607 0.10676 0.10677 0.21763 0.15278 0.32853 0.0648 0.14857 0.11508 0.29925 0.1653 0.4562 0.0314 0.12975 0.069 0.26367 0.0921 0.3976 0.0314 0.15694 0.0544 0.30971 0.069 0.47084 9e-3 0.0732 0.0272 0.1423 0.0376 0.21136l5.2756 132.32c4e-3 0.0649-0.0146 0.1151-0.0146 0.17578-0.0146 0.0502 4e-3 0.0963-2e-3 0.14649z" fill="#fff" stroke-width=".53571"/>
 <g transform="translate(150,181.84)" fill="#fff" font-family="sans-serif">
  <g stroke-width="1.498" aria-label="NM CASJ">
   <path d="m375 198.4 29.36-146.8h20.173l4.6936 76.497 0.39946 6.7908h1.1984l16.677-83.287h19.773l-29.36 146.8h-18.175l-6.691-76.497-0.39946-6.7908h-1.1984l-16.677 83.287z"/>
   <path d="m453.8 198.4 29.36-146.8h27.363l-3.3954 76.097-0.59919 7.7895h0.39946l2.5965-7.7895 26.964-76.097h27.363l-29.36 146.8h-19.973l19.673-98.467h-1.1984l-1.9973 6.1916-31.258 92.275h-11.185l5.6923-92.275 0.39946-6.1916h-1.1984l-19.673 98.467z"/>
   <path d="m608.82 200q-9.1876 0-14.88-4.0945-5.5924-4.1943-7.4899-11.385-1.8974-7.1903-0.0999-16.278l17.377-86.483q1.7976-8.9878 6.5911-16.178 4.8934-7.1903 12.184-11.385 7.39-4.1943 16.278-4.1943 6.691 0 11.484 2.4966t7.6896 6.8907q2.8961 4.2942 3.695 10.086 0.89879 5.6923-0.39946 12.283l-4.0945 20.173h-20.173l4.0945-20.173q0.89879-4.5938-0.39946-7.6896-1.2982-3.0958-5.6923-3.0958-3.9946 0-6.4912 3.1957-2.3968 3.1957-3.1957 7.5897l-17.377 86.483q-0.79892 4.3941 0.49933 7.5897 1.2982 3.1957 4.9932 3.1957 4.4939 0 6.8907-3.0958 2.4966-3.0958 3.3954-7.6896l4.0945-20.173h20.173l-4.0945 20.173q-1.7976 8.9878-6.691 16.178-4.8934 7.1903-12.184 11.385-7.2902 4.1943-16.178 4.1943z"/>
   <path d="m648.26 198.4 51.53-146.8h26.364l-7.1903 146.8h-20.972l1.9973-29.96h-20.772l-9.9865 29.96zm38.548-52.729h14.78l3.5951-49.333 0.99865-7.7895h-1.1984l-2.197 7.7895z"/>
   <path d="m754.09 200q-8.888 0-14.181-2.8961-5.2928-2.996-7.5897-8.5884-2.2969-5.5924-2.197-13.482 0.19973-7.8893 2.0972-17.776l21.571-1.9973q-0.89879 4.7935-1.498 9.2874-0.49932 4.3941-0.29959 7.9892 0.29959 3.4953 1.6977 5.5924 1.3981 2.0972 4.2942 2.0972 4.7935 0 7.6896-4.3941 2.8961-4.4939 4.1943-10.785 1.1984-6.2915-0.69905-13.082-1.8974-6.7908-5.2928-12.883-5.6923-10.386-9.7868-19.274-4.0945-8.888-5.5924-17.476-1.498-8.5884 0.2996-17.976 1.498-7.39 4.5938-13.582 3.1957-6.2915 7.7895-10.885 4.5938-4.6937 10.286-7.2901 5.6923-2.5965 12.383-2.5965 8.2888 0 13.482 2.7962t7.6896 7.9892q2.4966 5.193 2.6964 12.383 0.29959 7.0904-1.498 15.779l-21.571 1.9973q0.79892-3.695 1.1984-7.39 0.39946-3.7949 0.0999-6.8907-0.2996-3.0958-1.5978-4.9932-1.2982-1.8974-3.9946-1.8974-4.1943 0-6.5911 3.5951-2.2969 3.4953-3.5951 9.9865-1.5978 8.3887 1.2982 16.178 2.8961 7.7895 8.4885 18.175 6.5911 12.283 10.286 22.569 3.695 10.286 1.1984 22.769-1.5978 7.8893-4.6936 14.68-2.996 6.691-7.6896 11.684-4.5938 4.9932-10.785 7.7895t-14.181 2.7962z"/>
   <path d="m788.82 199.8 4.2942-21.171q1.2982 0.19973 1.9973 0.19973 4.4939 0 7.5897-2.7962 3.0958-2.8961 4.0945-8.1889l23.269-116.24h21.571l-23.968 119.64q-1.8974 9.4872-6.5911 15.879-4.6936 6.3914-11.984 9.587-7.1903 3.1957-16.578 3.1957-0.89879 0-1.7976 0-0.89879 0-1.8974-0.0999z"/>
  </g>
  <g stroke-width="1.1013" aria-label="Counselors for Advocacy and Social Justice">
   <path d="m396.88 273.54q0.32 0 0.58 0.26l1.52 1.66q-1.76 2.04-4.28 3.18-2.5 1.14-6.04 1.14-3.1 0-5.62-1.06-2.52-1.08-4.3-3-1.78-1.94-2.76-4.64t-0.98-5.94 1.04-5.94q1.06-2.7 2.96-4.64t4.54-3q2.66-1.08 5.86-1.08 3.16 0 5.44 0.98 2.3 0.98 4.08 2.66l-1.26 1.78q-0.14 0.2-0.32 0.34-0.18 0.12-0.52 0.12-0.26 0-0.56-0.18-0.28-0.2-0.68-0.48t-0.94-0.6-1.28-0.6-1.72-0.46q-0.98-0.2-2.26-0.2-2.3 0-4.22 0.8-1.9 0.78-3.28 2.24t-2.16 3.56q-0.76 2.1-0.76 4.7 0 2.68 0.76 4.78 0.78 2.1 2.1 3.56 1.34 1.44 3.16 2.2t3.92 0.76q1.28 0 2.3-0.14 1.02-0.16 1.88-0.48 0.88-0.32 1.62-0.8 0.76-0.5 1.52-1.18 0.34-0.3 0.66-0.3z"/>
   <path d="m411.74 258.88q2.22 0 4 0.74 1.8 0.74 3.04 2.1 1.26 1.36 1.92 3.3 0.68 1.92 0.68 4.3 0 2.4-0.68 4.32-0.66 1.92-1.92 3.28-1.24 1.36-3.04 2.1-1.78 0.72-4 0.72t-4.02-0.72q-1.78-0.74-3.04-2.1t-1.94-3.28-0.68-4.32q0-2.38 0.68-4.3 0.68-1.94 1.94-3.3t3.04-2.1q1.8-0.74 4.02-0.74zm0 18.08q3 0 4.48-2 1.48-2.02 1.48-5.62 0-3.62-1.48-5.64t-4.48-2.02q-1.52 0-2.64 0.52t-1.88 1.5q-0.74 0.98-1.12 2.42-0.36 1.42-0.36 3.22t0.36 3.22q0.38 1.42 1.12 2.4 0.76 0.96 1.88 1.48t2.64 0.52z"/>
   <path d="m428.89 259.2v12.92q0 2.3 1.06 3.56t3.2 1.26q1.56 0 2.94-0.74t2.54-2.06v-14.94h3.56v20.26h-2.12q-0.76 0-0.96-0.74l-0.28-2.18q-1.32 1.46-2.96 2.36-1.64 0.88-3.76 0.88-1.66 0-2.94-0.54-1.26-0.56-2.12-1.56t-1.3-2.42q-0.42-1.42-0.42-3.14v-12.92z"/>
   <path d="m448.07 279.46v-20.26h2.12q0.76 0 0.96 0.74l0.28 2.2q1.32-1.46 2.94-2.36 1.64-0.9 3.78-0.9 1.66 0 2.92 0.56 1.28 0.54 2.12 1.56 0.86 1 1.3 2.42t0.44 3.14v12.9h-3.56v-12.9q0-2.3-1.06-3.56-1.04-1.28-3.2-1.28-1.58 0-2.96 0.76-1.36 0.76-2.52 2.06v14.92z"/>
   <path d="m481.94 262.54q-0.24 0.44-0.74 0.44-0.3 0-0.68-0.22t-0.94-0.48q-0.54-0.28-1.3-0.5-0.76-0.24-1.8-0.24-0.9 0-1.62 0.24-0.72 0.22-1.24 0.62-0.5 0.4-0.78 0.94-0.26 0.52-0.26 1.14 0 0.78 0.44 1.3 0.46 0.52 1.2 0.9t1.68 0.68q0.94 0.28 1.92 0.62 1 0.32 1.94 0.72t1.68 1 1.18 1.48q0.46 0.86 0.46 2.08 0 1.4-0.5 2.6-0.5 1.18-1.48 2.06-0.98 0.86-2.4 1.36t-3.28 0.5q-2.12 0-3.84-0.68-1.72-0.7-2.92-1.78l0.84-1.36q0.16-0.26 0.38-0.4t0.58-0.14 0.76 0.28 0.96 0.62q0.58 0.34 1.38 0.62 0.82 0.28 2.04 0.28 1.04 0 1.82-0.26 0.78-0.28 1.3-0.74t0.76-1.06q0.26-0.6 0.26-1.28 0-0.84-0.46-1.38-0.44-0.56-1.18-0.94-0.74-0.4-1.7-0.68-0.94-0.3-1.94-0.62-0.98-0.32-1.94-0.72-0.94-0.42-1.68-1.04t-1.2-1.52q-0.44-0.92-0.44-2.22 0-1.16 0.48-2.22 0.48-1.08 1.4-1.88 0.92-0.82 2.26-1.3t3.06-0.48q2 0 3.58 0.64 1.6 0.62 2.76 1.72z"/>
   <path d="m495.7 258.88q1.82 0 3.36 0.62 1.54 0.6 2.66 1.76 1.12 1.14 1.74 2.84 0.64 1.68 0.64 3.84 0 0.84-0.18 1.12t-0.68 0.28h-13.48q0.04 1.92 0.52 3.34t1.32 2.38q0.84 0.94 2 1.42 1.16 0.46 2.6 0.46 1.34 0 2.3-0.3 0.98-0.32 1.68-0.68t1.16-0.66q0.48-0.32 0.82-0.32 0.44 0 0.68 0.34l1 1.3q-0.66 0.8-1.58 1.4-0.92 0.58-1.98 0.96-1.04 0.38-2.16 0.56-1.12 0.2-2.22 0.2-2.1 0-3.88-0.7-1.76-0.72-3.06-2.08-1.28-1.38-2-3.4t-0.72-4.64q0-2.12 0.64-3.96 0.66-1.84 1.88-3.18 1.22-1.36 2.98-2.12 1.76-0.78 3.96-0.78zm0.08 2.62q-2.58 0-4.06 1.5-1.48 1.48-1.84 4.12h11.02q0-1.24-0.34-2.26-0.34-1.04-1-1.78-0.66-0.76-1.62-1.16-0.94-0.42-2.16-0.42z"/>
   <path d="m512.58 250v29.46h-3.56v-29.46z"/>
   <path d="m527.05 258.88q2.22 0 4 0.74 1.8 0.74 3.04 2.1 1.26 1.36 1.92 3.3 0.68 1.92 0.68 4.3 0 2.4-0.68 4.32-0.66 1.92-1.92 3.28-1.24 1.36-3.04 2.1-1.78 0.72-4 0.72t-4.02-0.72q-1.78-0.74-3.04-2.1t-1.94-3.28-0.68-4.32q0-2.38 0.68-4.3 0.68-1.94 1.94-3.3t3.04-2.1q1.8-0.74 4.02-0.74zm0 18.08q3 0 4.48-2 1.48-2.02 1.48-5.62 0-3.62-1.48-5.64t-4.48-2.02q-1.52 0-2.64 0.52t-1.88 1.5q-0.74 0.98-1.12 2.42-0.36 1.42-0.36 3.22t0.36 3.22q0.38 1.42 1.12 2.4 0.76 0.96 1.88 1.48t2.64 0.52z"/>
   <path d="m541.12 279.46v-20.26h2.04q0.58 0 0.8 0.22t0.3 0.76l0.24 3.16q1.04-2.12 2.56-3.3 1.54-1.2 3.6-1.2 0.84 0 1.52 0.2 0.68 0.18 1.26 0.52l-0.46 2.66q-0.14 0.5-0.62 0.5-0.28 0-0.86-0.18-0.58-0.2-1.62-0.2-1.86 0-3.12 1.08-1.24 1.08-2.08 3.14v12.9z"/>
   <path d="m568.81 262.54q-0.24 0.44-0.74 0.44-0.3 0-0.68-0.22t-0.94-0.48q-0.54-0.28-1.3-0.5-0.76-0.24-1.8-0.24-0.9 0-1.62 0.24-0.72 0.22-1.24 0.62-0.5 0.4-0.78 0.94-0.26 0.52-0.26 1.14 0 0.78 0.44 1.3 0.46 0.52 1.2 0.9t1.68 0.68q0.94 0.28 1.92 0.62 1 0.32 1.94 0.72t1.68 1 1.18 1.48q0.46 0.86 0.46 2.08 0 1.4-0.5 2.6-0.5 1.18-1.48 2.06-0.98 0.86-2.4 1.36t-3.28 0.5q-2.12 0-3.84-0.68-1.72-0.7-2.92-1.78l0.84-1.36q0.16-0.26 0.38-0.4t0.58-0.14 0.76 0.28 0.96 0.62q0.58 0.34 1.38 0.62 0.82 0.28 2.04 0.28 1.04 0 1.82-0.26 0.78-0.28 1.3-0.74t0.76-1.06q0.26-0.6 0.26-1.28 0-0.84-0.46-1.38-0.44-0.56-1.18-0.94-0.74-0.4-1.7-0.68-0.94-0.3-1.94-0.62-0.98-0.32-1.94-0.72-0.94-0.42-1.68-1.04t-1.2-1.52q-0.44-0.92-0.44-2.22 0-1.16 0.48-2.22 0.48-1.08 1.4-1.88 0.92-0.82 2.26-1.3t3.06-0.48q2 0 3.58 0.64 1.6 0.62 2.76 1.72z"/>
   <path d="m583.09 279.46v-17.22l-2.24-0.26q-0.42-0.1-0.7-0.3-0.26-0.22-0.26-0.62v-1.46h3.2v-1.96q0-1.74 0.48-3.08 0.5-1.36 1.4-2.28 0.92-0.94 2.2-1.42t2.88-0.48q1.36 0 2.52 0.4l-0.08 1.78q-0.02 0.4-0.34 0.48t-0.9 0.08h-0.62q-0.92 0-1.68 0.24-0.74 0.24-1.28 0.78t-0.84 1.42q-0.28 0.88-0.28 2.18v1.86h5.86v2.58h-5.74v17.28z"/>
   <path d="m604.01 258.88q2.22 0 4 0.74 1.8 0.74 3.04 2.1 1.26 1.36 1.92 3.3 0.68 1.92 0.68 4.3 0 2.4-0.68 4.32-0.66 1.92-1.92 3.28-1.24 1.36-3.04 2.1-1.78 0.72-4 0.72t-4.02-0.72q-1.78-0.74-3.04-2.1t-1.94-3.28-0.68-4.32q0-2.38 0.68-4.3 0.68-1.94 1.94-3.3t3.04-2.1q1.8-0.74 4.02-0.74zm0 18.08q3 0 4.48-2 1.48-2.02 1.48-5.62 0-3.62-1.48-5.64t-4.48-2.02q-1.52 0-2.64 0.52t-1.88 1.5q-0.74 0.98-1.12 2.42-0.36 1.42-0.36 3.22t0.36 3.22q0.38 1.42 1.12 2.4 0.76 0.96 1.88 1.48t2.64 0.52z"/>
   <path d="m618.07 279.46v-20.26h2.04q0.58 0 0.8 0.22t0.3 0.76l0.24 3.16q1.04-2.12 2.56-3.3 1.54-1.2 3.6-1.2 0.84 0 1.52 0.2 0.68 0.18 1.26 0.52l-0.46 2.66q-0.14 0.5-0.62 0.5-0.28 0-0.86-0.18-0.58-0.2-1.62-0.2-1.86 0-3.12 1.08-1.24 1.08-2.08 3.14v12.9z"/>
   <path d="m666.04 279.46h-3q-0.52 0-0.84-0.26t-0.48-0.66l-2.68-6.92h-12.86l-2.68 6.92q-0.14 0.36-0.48 0.64t-0.84 0.28h-3l11.46-28.66h3.94zm-18.78-10.64h10.7l-4.5-11.66q-0.44-1.08-0.86-2.7-0.22 0.82-0.44 1.52-0.2 0.68-0.4 1.2z"/>
   <path d="m683.35 279.46q-0.76 0-0.96-0.74l-0.32-2.46q-1.3 1.58-2.98 2.54-1.66 0.94-3.82 0.94-1.74 0-3.16-0.66-1.42-0.68-2.42-1.98t-1.54-3.24-0.54-4.46q0-2.24 0.6-4.16 0.6-1.94 1.72-3.36 1.14-1.42 2.76-2.22 1.62-0.82 3.68-0.82 1.86 0 3.18 0.64 1.32 0.62 2.36 1.76v-11.24h3.56v29.46zm-6.9-2.6q1.74 0 3.04-0.8 1.32-0.8 2.42-2.26v-9.8q-0.98-1.32-2.16-1.84-1.16-0.54-2.58-0.54-2.84 0-4.36 2.02t-1.52 5.76q0 1.98 0.34 3.4 0.34 1.4 1 2.32 0.66 0.9 1.62 1.32t2.2 0.42z"/>
   <path d="m688.87 259.2h2.92q0.42 0 0.7 0.22t0.4 0.52l5.14 13.04q0.28 0.72 0.44 1.44t0.3 1.42q0.16-0.7 0.34-1.42t0.46-1.44l5.2-13.04q0.12-0.32 0.38-0.52 0.28-0.22 0.68-0.22h2.78l-8.26 20.26h-3.22z"/>
   <path d="m719.55 258.88q2.22 0 4 0.74 1.8 0.74 3.04 2.1 1.26 1.36 1.92 3.3 0.68 1.92 0.68 4.3 0 2.4-0.68 4.32-0.66 1.92-1.92 3.28-1.24 1.36-3.04 2.1-1.78 0.72-4 0.72t-4.02-0.72q-1.78-0.74-3.04-2.1t-1.94-3.28-0.68-4.32q0-2.38 0.68-4.3 0.68-1.94 1.94-3.3t3.04-2.1q1.8-0.74 4.02-0.74zm0 18.08q3 0 4.48-2 1.48-2.02 1.48-5.62 0-3.62-1.48-5.64t-4.48-2.02q-1.52 0-2.64 0.52t-1.88 1.5q-0.74 0.98-1.12 2.42-0.36 1.42-0.36 3.22t0.36 3.22q0.38 1.42 1.12 2.4 0.76 0.96 1.88 1.48t2.64 0.52z"/>
   <path d="m747.44 262.8q-0.16 0.22-0.32 0.34t-0.46 0.12-0.66-0.24q-0.34-0.26-0.88-0.56t-1.32-0.54q-0.76-0.26-1.88-0.26-1.48 0-2.62 0.54-1.14 0.52-1.92 1.52-0.76 1-1.16 2.42-0.38 1.42-0.38 3.18 0 1.84 0.42 3.28 0.42 1.42 1.18 2.4 0.76 0.96 1.84 1.48 1.1 0.5 2.46 0.5 1.3 0 2.14-0.3 0.84-0.32 1.4-0.7t0.92-0.68q0.36-0.32 0.72-0.32 0.46 0 0.68 0.34l1 1.3q-1.32 1.62-3.3 2.38-1.98 0.74-4.18 0.74-1.9 0-3.54-0.7-1.62-0.7-2.82-2.02-1.2-1.34-1.9-3.28-0.68-1.94-0.68-4.42 0-2.26 0.62-4.18 0.64-1.92 1.84-3.3 1.22-1.4 3-2.18t4.08-0.78q2.12 0 3.76 0.7 1.64 0.68 2.9 1.94z"/>
   <path d="m767.17 279.46h-1.58q-0.52 0-0.84-0.16t-0.42-0.68l-0.4-1.88q-0.8 0.72-1.56 1.3-0.76 0.56-1.6 0.96-0.84 0.38-1.8 0.58-0.94 0.2-2.1 0.2-1.18 0-2.22-0.32-1.02-0.34-1.78-1t-1.22-1.66q-0.44-1.02-0.44-2.4 0-1.2 0.66-2.3 0.66-1.12 2.12-1.98 1.48-0.86 3.86-1.4 2.38-0.56 5.82-0.64v-1.58q0-2.36-1.02-3.56-1-1.22-2.98-1.22-1.3 0-2.2 0.34-0.88 0.32-1.54 0.74-0.64 0.4-1.12 0.74-0.46 0.32-0.92 0.32-0.36 0-0.64-0.18-0.26-0.2-0.42-0.48l-0.64-1.14q1.68-1.62 3.62-2.42t4.3-0.8q1.7 0 3.02 0.56t2.22 1.56 1.36 2.42 0.46 3.12zm-9.24-2.18q0.94 0 1.72-0.18 0.78-0.2 1.46-0.54 0.7-0.36 1.32-0.86 0.64-0.5 1.24-1.14v-4.22q-2.46 0.08-4.18 0.4-1.72 0.3-2.8 0.8t-1.58 1.18q-0.48 0.68-0.48 1.52 0 0.8 0.26 1.38t0.7 0.96q0.44 0.36 1.04 0.54 0.6 0.16 1.3 0.16z"/>
   <path d="m786.42 262.8q-0.16 0.22-0.32 0.34t-0.46 0.12-0.66-0.24q-0.34-0.26-0.88-0.56t-1.32-0.54q-0.76-0.26-1.88-0.26-1.48 0-2.62 0.54-1.14 0.52-1.92 1.52-0.76 1-1.16 2.42-0.38 1.42-0.38 3.18 0 1.84 0.42 3.28 0.42 1.42 1.18 2.4 0.76 0.96 1.84 1.48 1.1 0.5 2.46 0.5 1.3 0 2.14-0.3 0.84-0.32 1.4-0.7t0.92-0.68q0.36-0.32 0.72-0.32 0.46 0 0.68 0.34l1 1.3q-1.32 1.62-3.3 2.38-1.98 0.74-4.18 0.74-1.9 0-3.54-0.7-1.62-0.7-2.82-2.02-1.2-1.34-1.9-3.28-0.68-1.94-0.68-4.42 0-2.26 0.62-4.18 0.64-1.92 1.84-3.3 1.22-1.4 3-2.18t4.08-0.78q2.12 0 3.76 0.7 1.64 0.68 2.9 1.94z"/>
   <path d="m797.22 285.44q-0.18 0.4-0.46 0.64-0.26 0.24-0.82 0.24h-2.64l3.7-8.04-8.36-19.08h3.08q0.46 0 0.72 0.24 0.26 0.22 0.38 0.5l5.42 12.76q0.18 0.44 0.3 0.88 0.14 0.44 0.24 0.9 0.14-0.46 0.28-0.9t0.32-0.9l5.26-12.74q0.12-0.32 0.4-0.52 0.3-0.22 0.64-0.22h2.84z"/>
   <path d="m834.36 279.46h-1.58q-0.52 0-0.84-0.16t-0.42-0.68l-0.4-1.88q-0.8 0.72-1.56 1.3-0.76 0.56-1.6 0.96-0.84 0.38-1.8 0.58-0.94 0.2-2.1 0.2-1.18 0-2.22-0.32-1.02-0.34-1.78-1t-1.22-1.66q-0.44-1.02-0.44-2.4 0-1.2 0.66-2.3 0.66-1.12 2.12-1.98 1.48-0.86 3.86-1.4 2.38-0.56 5.82-0.64v-1.58q0-2.36-1.02-3.56-1-1.22-2.98-1.22-1.3 0-2.2 0.34-0.88 0.32-1.54 0.74-0.64 0.4-1.12 0.74-0.46 0.32-0.92 0.32-0.36 0-0.64-0.18-0.26-0.2-0.42-0.48l-0.64-1.14q1.68-1.62 3.62-2.42t4.3-0.8q1.7 0 3.02 0.56t2.22 1.56 1.36 2.42 0.46 3.12zm-9.24-2.18q0.94 0 1.72-0.18 0.78-0.2 1.46-0.54 0.7-0.36 1.32-0.86 0.64-0.5 1.24-1.14v-4.22q-2.46 0.08-4.18 0.4-1.72 0.3-2.8 0.8t-1.58 1.18q-0.48 0.68-0.48 1.52 0 0.8 0.26 1.38t0.7 0.96q0.44 0.36 1.04 0.54 0.6 0.16 1.3 0.16z"/>
   <path d="m839.79 279.46v-20.26h2.12q0.76 0 0.96 0.74l0.28 2.2q1.32-1.46 2.94-2.36 1.64-0.9 3.78-0.9 1.66 0 2.92 0.56 1.28 0.54 2.12 1.56 0.86 1 1.3 2.42t0.44 3.14v12.9h-3.56v-12.9q0-2.3-1.06-3.56-1.04-1.28-3.2-1.28-1.58 0-2.96 0.76-1.36 0.76-2.52 2.06v14.92z"/>
   <path d="m876.32 279.46q-0.76 0-0.96-0.74l-0.32-2.46q-1.3 1.58-2.98 2.54-1.66 0.94-3.82 0.94-1.74 0-3.16-0.66-1.42-0.68-2.42-1.98t-1.54-3.24-0.54-4.46q0-2.24 0.6-4.16 0.6-1.94 1.72-3.36 1.14-1.42 2.76-2.22 1.62-0.82 3.68-0.82 1.86 0 3.18 0.64 1.32 0.62 2.36 1.76v-11.24h3.56v29.46zm-6.9-2.6q1.74 0 3.04-0.8 1.32-0.8 2.42-2.26v-9.8q-0.98-1.32-2.16-1.84-1.16-0.54-2.58-0.54-2.84 0-4.36 2.02t-1.52 5.76q0 1.98 0.34 3.4 0.34 1.4 1 2.32 0.66 0.9 1.62 1.32t2.2 0.42z"/>
   <path d="m907.38 255.28q-0.18 0.3-0.38 0.46-0.2 0.14-0.52 0.14-0.34 0-0.8-0.34-0.44-0.34-1.14-0.74-0.68-0.42-1.66-0.76-0.96-0.34-2.34-0.34-1.3 0-2.3 0.36-1 0.34-1.68 0.94-0.66 0.6-1 1.42-0.34 0.8-0.34 1.74 0 1.2 0.58 2 0.6 0.78 1.56 1.34 0.98 0.56 2.2 0.98 1.24 0.4 2.52 0.84 1.3 0.44 2.52 1 1.24 0.54 2.2 1.38 0.98 0.84 1.56 2.06 0.6 1.22 0.6 3 0 1.88-0.64 3.54-0.64 1.64-1.88 2.86-1.22 1.22-3.02 1.92-1.78 0.7-4.06 0.7-2.78 0-5.08-1-2.28-1.02-3.9-2.74l1.12-1.84q0.16-0.22 0.38-0.36 0.24-0.16 0.52-0.16 0.42 0 0.96 0.46 0.54 0.44 1.34 0.98 0.82 0.54 1.96 1 1.16 0.44 2.82 0.44 1.38 0 2.46-0.38t1.82-1.06q0.76-0.7 1.16-1.66t0.4-2.14q0-1.3-0.6-2.12-0.58-0.84-1.54-1.4t-2.2-0.94q-1.22-0.4-2.52-0.8-1.28-0.42-2.52-0.96-1.22-0.54-2.18-1.4t-1.56-2.14q-0.58-1.3-0.58-3.2 0-1.52 0.58-2.94 0.6-1.42 1.72-2.52t2.76-1.76q1.66-0.66 3.8-0.66 2.4 0 4.38 0.76t3.46 2.2z"/>
   <path d="m921.51 258.88q2.22 0 4 0.74 1.8 0.74 3.04 2.1 1.26 1.36 1.92 3.3 0.68 1.92 0.68 4.3 0 2.4-0.68 4.32-0.66 1.92-1.92 3.28-1.24 1.36-3.04 2.1-1.78 0.72-4 0.72t-4.02-0.72q-1.78-0.74-3.04-2.1t-1.94-3.28-0.68-4.32q0-2.38 0.68-4.3 0.68-1.94 1.94-3.3t3.04-2.1q1.8-0.74 4.02-0.74zm0 18.08q3 0 4.48-2 1.48-2.02 1.48-5.62 0-3.62-1.48-5.64t-4.48-2.02q-1.52 0-2.64 0.52t-1.88 1.5q-0.74 0.98-1.12 2.42-0.36 1.42-0.36 3.22t0.36 3.22q0.38 1.42 1.12 2.4 0.76 0.96 1.88 1.48t2.64 0.52z"/>
   <path d="m949.39 262.8q-0.16 0.22-0.32 0.34t-0.46 0.12-0.66-0.24q-0.34-0.26-0.88-0.56t-1.32-0.54q-0.76-0.26-1.88-0.26-1.48 0-2.62 0.54-1.14 0.52-1.92 1.52-0.76 1-1.16 2.42-0.38 1.42-0.38 3.18 0 1.84 0.42 3.28 0.42 1.42 1.18 2.4 0.76 0.96 1.84 1.48 1.1 0.5 2.46 0.5 1.3 0 2.14-0.3 0.84-0.32 1.4-0.7t0.92-0.68q0.36-0.32 0.72-0.32 0.46 0 0.68 0.34l1 1.3q-1.32 1.62-3.3 2.38-1.98 0.74-4.18 0.74-1.9 0-3.54-0.7-1.62-0.7-2.82-2.02-1.2-1.34-1.9-3.28-0.68-1.94-0.68-4.42 0-2.26 0.62-4.18 0.64-1.92 1.84-3.3 1.22-1.4 3-2.18t4.08-0.78q2.12 0 3.76 0.7 1.64 0.68 2.9 1.94z"/>
   <path d="m958.21 259.2v20.26h-3.56v-20.26zm0.8-6.36q0 0.52-0.22 0.98-0.2 0.44-0.56 0.8-0.34 0.34-0.8 0.54t-0.98 0.2-0.98-0.2q-0.44-0.2-0.8-0.54-0.34-0.36-0.54-0.8-0.2-0.46-0.2-0.98t0.2-0.98q0.2-0.48 0.54-0.82 0.36-0.36 0.8-0.56 0.46-0.2 0.98-0.2t0.98 0.2 0.8 0.56q0.36 0.34 0.56 0.82 0.22 0.46 0.22 0.98z"/>
   <path d="m979.36 279.46h-1.58q-0.52 0-0.84-0.16t-0.42-0.68l-0.4-1.88q-0.8 0.72-1.56 1.3-0.76 0.56-1.6 0.96-0.84 0.38-1.8 0.58-0.94 0.2-2.1 0.2-1.18 0-2.22-0.32-1.02-0.34-1.78-1t-1.22-1.66q-0.44-1.02-0.44-2.4 0-1.2 0.66-2.3 0.66-1.12 2.12-1.98 1.48-0.86 3.86-1.4 2.38-0.56 5.82-0.64v-1.58q0-2.36-1.02-3.56-1-1.22-2.98-1.22-1.3 0-2.2 0.34-0.88 0.32-1.54 0.74-0.64 0.4-1.12 0.74-0.46 0.32-0.92 0.32-0.36 0-0.64-0.18-0.26-0.2-0.42-0.48l-0.64-1.14q1.68-1.62 3.62-2.42t4.3-0.8q1.7 0 3.02 0.56t2.22 1.56 1.36 2.42 0.46 3.12zm-9.24-2.18q0.94 0 1.72-0.18 0.78-0.2 1.46-0.54 0.7-0.36 1.32-0.86 0.64-0.5 1.24-1.14v-4.22q-2.46 0.08-4.18 0.4-1.72 0.3-2.8 0.8t-1.58 1.18q-0.48 0.68-0.48 1.52 0 0.8 0.26 1.38t0.7 0.96q0.44 0.36 1.04 0.54 0.6 0.16 1.3 0.16z"/>
   <path d="m988.75 250v29.46h-3.56v-29.46z"/>
   <path d="m1014.1 269.56q0 2.4-0.6 4.3-0.58 1.9-1.74 3.22-1.14 1.3-2.82 2t-3.86 0.7q-1.94 0-4.04-0.56 0.04-0.58 0.1-1.14 0.06-0.58 0.12-1.14 0.04-0.34 0.24-0.54 0.22-0.22 0.64-0.22 0.36 0 0.96 0.18t1.6 0.18q1.32 0 2.34-0.4 1.04-0.4 1.74-1.24 0.72-0.84 1.08-2.14 0.38-1.32 0.38-3.12v-18.84h3.86z"/>
   <path d="m1023.6 259.2v12.92q0 2.3 1.06 3.56t3.2 1.26q1.56 0 2.94-0.74t2.54-2.06v-14.94h3.56v20.26h-2.12q-0.76 0-0.96-0.74l-0.28-2.18q-1.32 1.46-2.96 2.36-1.64 0.88-3.76 0.88-1.66 0-2.94-0.54-1.26-0.56-2.12-1.56t-1.3-2.42q-0.42-1.42-0.42-3.14v-12.92z"/>
   <path d="m1054.4 262.54q-0.24 0.44-0.74 0.44-0.3 0-0.68-0.22t-0.94-0.48q-0.54-0.28-1.3-0.5-0.76-0.24-1.8-0.24-0.9 0-1.62 0.24-0.72 0.22-1.24 0.62-0.5 0.4-0.78 0.94-0.26 0.52-0.26 1.14 0 0.78 0.44 1.3 0.46 0.52 1.2 0.9t1.68 0.68q0.94 0.28 1.92 0.62 1 0.32 1.94 0.72t1.68 1 1.18 1.48q0.46 0.86 0.46 2.08 0 1.4-0.5 2.6-0.5 1.18-1.48 2.06-0.98 0.86-2.4 1.36t-3.28 0.5q-2.12 0-3.84-0.68-1.72-0.7-2.92-1.78l0.84-1.36q0.16-0.26 0.38-0.4t0.58-0.14 0.76 0.28 0.96 0.62q0.58 0.34 1.38 0.62 0.82 0.28 2.04 0.28 1.04 0 1.82-0.26 0.78-0.28 1.3-0.74t0.76-1.06q0.26-0.6 0.26-1.28 0-0.84-0.46-1.38-0.44-0.56-1.18-0.94-0.74-0.4-1.7-0.68-0.94-0.3-1.94-0.62-0.98-0.32-1.94-0.72-0.94-0.42-1.68-1.04t-1.2-1.52q-0.44-0.92-0.44-2.22 0-1.16 0.48-2.22 0.48-1.08 1.4-1.88 0.92-0.82 2.26-1.3t3.06-0.48q2 0 3.58 0.64 1.6 0.62 2.76 1.72z"/>
   <path d="m1066.2 279.78q-2.4 0-3.7-1.34-1.28-1.34-1.28-3.86v-12.4h-2.44q-0.32 0-0.54-0.18-0.22-0.2-0.22-0.6v-1.42l3.32-0.42 0.82-6.26q0.04-0.3 0.26-0.48 0.22-0.2 0.56-0.2h1.8v6.98h5.8v2.58h-5.8v12.16q0 1.28 0.62 1.9t1.6 0.62q0.56 0 0.96-0.14 0.42-0.16 0.72-0.34t0.5-0.32q0.22-0.16 0.38-0.16 0.28 0 0.5 0.34l1.04 1.7q-0.92 0.86-2.22 1.36-1.3 0.48-2.68 0.48z"/>
   <path d="m1079 259.2v20.26h-3.56v-20.26zm0.8-6.36q0 0.52-0.22 0.98-0.2 0.44-0.56 0.8-0.34 0.34-0.8 0.54t-0.98 0.2-0.98-0.2q-0.44-0.2-0.8-0.54-0.34-0.36-0.54-0.8-0.2-0.46-0.2-0.98t0.2-0.98q0.2-0.48 0.54-0.82 0.36-0.36 0.8-0.56 0.46-0.2 0.98-0.2t0.98 0.2 0.8 0.56q0.36 0.34 0.56 0.82 0.22 0.46 0.22 0.98z"/>
   <path d="m1099.1 262.8q-0.16 0.22-0.32 0.34t-0.46 0.12-0.66-0.24q-0.34-0.26-0.88-0.56t-1.32-0.54q-0.76-0.26-1.88-0.26-1.48 0-2.62 0.54-1.14 0.52-1.92 1.52-0.76 1-1.16 2.42-0.38 1.42-0.38 3.18 0 1.84 0.42 3.28 0.42 1.42 1.18 2.4 0.76 0.96 1.84 1.48 1.1 0.5 2.46 0.5 1.3 0 2.14-0.3 0.84-0.32 1.4-0.7t0.92-0.68q0.36-0.32 0.72-0.32 0.46 0 0.68 0.34l1 1.3q-1.32 1.62-3.3 2.38-1.98 0.74-4.18 0.74-1.9 0-3.54-0.7-1.62-0.7-2.82-2.02-1.2-1.34-1.9-3.28-0.68-1.94-0.68-4.42 0-2.26 0.62-4.18 0.64-1.92 1.84-3.3 1.22-1.4 3-2.18t4.08-0.78q2.12 0 3.76 0.7 1.64 0.68 2.9 1.94z"/>
   <path d="m1112 258.88q1.82 0 3.36 0.62 1.54 0.6 2.66 1.76 1.12 1.14 1.74 2.84 0.64 1.68 0.64 3.84 0 0.84-0.18 1.12t-0.68 0.28h-13.48q0.04 1.92 0.52 3.34t1.32 2.38q0.84 0.94 2 1.42 1.16 0.46 2.6 0.46 1.34 0 2.3-0.3 0.98-0.32 1.68-0.68t1.16-0.66q0.48-0.32 0.82-0.32 0.44 0 0.68 0.34l1 1.3q-0.66 0.8-1.58 1.4-0.92 0.58-1.98 0.96-1.04 0.38-2.16 0.56-1.12 0.2-2.22 0.2-2.1 0-3.88-0.7-1.76-0.72-3.06-2.08-1.28-1.38-2-3.4t-0.72-4.64q0-2.12 0.64-3.96 0.66-1.84 1.88-3.18 1.22-1.36 2.98-2.12 1.76-0.78 3.96-0.78zm0.08 2.62q-2.58 0-4.06 1.5-1.48 1.48-1.84 4.12h11.02q0-1.24-0.34-2.26-0.34-1.04-1-1.78-0.66-0.76-1.62-1.16-0.94-0.42-2.16-0.42z"/>
  </g>
 </g>
</svg>
