<?xml version="1.0" encoding="UTF-8"?>
<svg width="759.99pt" height="705.9pt" version="1.1" viewBox="0 0 759.99 705.9" xmlns="http://www.w3.org/2000/svg">
 <g transform="translate(29.996,72.95)">
  <path d="m276.52 532.95c-35.148 0-63.746-28.598-63.746-63.754 0-35.148 28.598-63.742 63.746-63.742v19.461c-24.422 0-44.285 19.867-44.285 44.277 0 24.426 19.863 44.289 44.285 44.289s44.289-19.867 44.289-44.289l4e-3 -378.39c0-24.414-19.867-44.285-44.289-44.285-24.418 0-44.281 19.867-44.281 44.285 0 24.422 19.863 44.289 44.281 44.289v19.461c-35.148 0-63.742-28.594-63.742-63.746 0-35.148 28.594-63.746 63.742-63.746 35.152 0 63.75 28.598 63.75 63.746v378.39c-4e-3 35.156-28.602 63.754-63.754 63.754z"/>
  <path d="m249.51 262.91c-35.148 0-63.742-28.594-63.742-63.742h19.461c0 24.418 19.863 44.281 44.281 44.281z"/>
  <path d="m205.23 360.83h-19.461c0-35.152 28.598-63.742 63.746-63.742v19.457c-24.418 4e-3 -44.285 19.867-44.285 44.285z"/>
  <path d="m340.27 388.03h-19.461c0-24.422-19.863-44.289-44.285-44.289v-19.457c35.148-4e-3 63.746 28.594 63.746 63.746z"/>
  <path d="m276.52 235.72v-19.461c24.422 0 44.289-19.867 44.289-44.289h19.461c0 35.148-28.598 63.75-63.75 63.75z"/>
  <path d="m140.77 144.5c-1.0625-4.6133-1.5977-9.3672-1.5977-14.141 0-35.152 28.598-63.75 63.75-63.75 8.4023 0 16.586 1.6211 24.312 4.8203l-7.4414 17.98c-5.3555-2.2188-11.027-3.3398-16.871-3.3398-24.422 0-44.289 19.867-44.289 44.289 0 3.3086 0.37109 6.5977 1.1016 9.7734z"/>
  <path d="m107.39 241.35c-24.855-24.855-24.855-65.297 0-90.152 12.039-12.039 28.043-18.668 45.07-18.668h4e-3c17.027 0 33.031 6.6289 45.07 18.672l-13.758 13.758c-8.3672-8.3711-19.484-12.973-31.316-12.973-11.828 0-22.945 4.6016-31.312 12.965-17.27 17.27-17.27 45.363 0 62.637z"/>
  <path d="m133.75 343.74c-35.148 0-63.746-28.594-63.746-63.742 0-35.152 28.598-63.75 63.746-63.75v19.461c-24.422 0-44.285 19.867-44.285 44.289 0 24.418 19.867 44.281 44.285 44.281z"/>
  <path d="m152.47 427.47h-4e-3c-17.023 0-33.031-6.6328-45.07-18.672-12.043-12.039-18.672-28.051-18.672-45.078s6.6289-33.039 18.672-45.078l13.758 13.766c-8.3672 8.3633-12.973 19.48-12.973 31.312 0 11.828 4.6094 22.949 12.973 31.316 8.3633 8.3672 19.48 12.973 31.316 12.973 11.828 0 22.949-4.6094 31.316-12.969l13.754 13.762c-12.039 12.039-28.047 18.668-45.07 18.668z"/>
  <path d="m202.92 493.37c-35.152 0-63.75-28.59-63.75-63.727 0-4.7812 0.53516-9.543 1.5977-14.16l18.961 4.3633c-0.73047 3.1875-1.1016 6.4805-1.1016 9.7969 0 24.41 19.867 44.27 44.289 44.27 5.8398 0 11.516-1.1211 16.867-3.3398l7.4492 17.98c-7.7227 3.1953-15.902 4.8164-24.312 4.8164z"/>
  <path d="m423.48 532.95c-35.152 0-63.75-28.598-63.75-63.754l-4e-3 -378.4c0-35.148 28.598-63.746 63.75-63.746 35.148 0 63.742 28.598 63.742 63.746 0 35.152-28.594 63.746-63.742 63.746v-19.461c24.418 0 44.281-19.867 44.281-44.289 0-24.414-19.867-44.285-44.281-44.285-24.422 0-44.289 19.867-44.289 44.285v378.4c0 24.426 19.871 44.289 44.289 44.289s44.285-19.867 44.285-44.289c0-24.414-19.867-44.277-44.285-44.277v-19.461c35.148 0 63.746 28.594 63.746 63.742 4e-3 35.152-28.594 63.75-63.742 63.75z"/>
  <path d="m450.49 262.91v-19.461c24.418 0 44.281-19.867 44.281-44.281h19.457c0 35.148-28.594 63.742-63.738 63.742z"/>
  <path d="m514.23 360.83h-19.461c0-24.418-19.867-44.281-44.289-44.281v-19.457c35.152 0 63.75 28.586 63.75 63.738z"/>
  <path d="m379.18 388.03h-19.457c0-35.152 28.598-63.75 63.746-63.75v19.457c-24.422 4e-3 -44.289 19.871-44.289 44.293z"/>
  <path d="m423.48 235.72c-35.152 0-63.75-28.598-63.75-63.75h19.457c0 24.422 19.871 44.289 44.289 44.289v19.461z"/>
  <path d="m559.23 144.5-18.957-4.3672c0.73047-3.1758 1.1016-6.4648 1.1016-9.7734 0-24.422-19.871-44.289-44.289-44.289-5.8398 0-11.516 1.1211-16.871 3.3398l-7.4414-17.98c7.7266-3.1992 15.91-4.8203 24.312-4.8203 35.152 0 63.75 28.598 63.75 63.75-8e-3 4.7734-0.54688 9.5273-1.6055 14.141z"/>
  <path d="m592.61 241.35-13.758-13.762c17.27-17.258 17.27-45.359 0-62.629-17.266-17.266-45.359-17.266-62.629 8e-3l-13.758-13.758c24.852-24.859 65.297-24.859 90.152-8e-3 24.848 24.859 24.844 65.301-8e-3 90.148z"/>
  <path d="m566.25 343.74v-19.457c24.426 0 44.285-19.867 44.285-44.281 0-24.422-19.863-44.289-44.285-44.289v-19.461c35.148-4e-3 63.746 28.594 63.746 63.746 0 35.148-28.598 63.742-63.746 63.742z"/>
  <path d="m547.53 427.44c-16.324 0-32.645-6.2148-45.07-18.641l13.758-13.758c17.262 17.262 45.363 17.262 62.633-4e-3 17.266-17.27 17.266-45.355 0-62.629l13.758-13.758c24.852 24.859 24.852 65.297 0 90.152-12.422 12.422-28.754 18.637-45.078 18.637z"/>
  <path d="m497.08 493.37c-8.4102 0-16.594-1.6211-24.316-4.8203l7.4492-17.98c5.3477 2.2188 11.027 3.3398 16.863 3.3398 24.422 0 44.289-19.859 44.289-44.27 0-3.3164-0.37109-6.6094-1.1016-9.7969l18.957-4.3633c1.0625 4.6133 1.5977 9.3789 1.5977 14.16 0.0117 35.145-28.586 63.73-63.738 63.73z"/>
 </g>
</svg>
