<svg id="SVGRoot" width="447.28" height="150" version="1.1" viewBox="0 0 447.28 150" xmlns="http://www.w3.org/2000/svg">
 <g style="fill:#f7bf4f;stroke-width:1.498" aria-label="NM CASJ">
  <path d="m1.9073e-7 148.4v-146.8h20.173l19.973 76.497 1.7976 6.7908h1.1984v-83.287h19.773v146.8h-18.175l-21.97-76.497-1.7976-6.7908h-1.1984v83.287z"/>
  <path d="m78.8 148.4v-146.8h27.363l11.784 76.097 0.99865 7.7895h0.39946l0.99865-7.7895 11.784-76.097h27.363v146.8h-19.973v-98.467h-1.1984l-0.79892 6.1916-12.783 92.275h-11.185l-12.783-92.275-0.79892-6.1916h-1.1984v98.467z"/>
  <path d="m234.12 150q-9.1876 0-15.679-4.0945-6.3914-4.1943-9.7868-11.385-3.2956-7.1903-3.2956-16.278v-86.483q0-8.9878 3.3954-16.178 3.4953-7.1903 9.9865-11.385 6.4912-4.1943 15.379-4.1943 6.691 0 11.984 2.4966 5.2928 2.4966 8.9878 6.8907 3.7949 4.2942 5.7922 10.086 1.9973 5.6923 1.9973 12.283v20.173h-20.173v-20.173q0-4.5938-1.8974-7.6896-1.8974-3.0958-6.2915-3.0958-3.9946 0-5.7922 3.1957t-1.7976 7.5897v86.483q0 4.3941 1.8974 7.5897 1.9973 3.1957 5.6923 3.1957 4.4939 0 6.2915-3.0958 1.8974-3.0958 1.8974-7.6896v-20.173h20.173v20.173q0 8.9878-3.4953 16.178-3.4953 7.1903-9.9865 11.385-6.3914 4.1943-15.279 4.1943z"/>
  <path d="m273.26 148.4 22.17-146.8h26.364l22.17 146.8h-20.972l-3.9946-29.96h-20.772l-3.9946 29.96zm27.962-52.729h14.78l-6.1916-49.333-0.59919-7.7895h-1.1984l-0.59919 7.7895z"/>
  <path d="m379.39 150q-8.888 0-14.78-2.8961-5.892-2.996-9.2874-8.5884t-4.8934-13.482q-1.3981-7.8893-1.3981-17.776l21.171-1.9973q0 4.7935 0.29959 9.2874 0.39946 4.3941 1.2982 7.9892 0.99865 3.4953 2.7962 5.5924 1.8974 2.0972 4.7935 2.0972 4.7935 0 6.7908-4.3941 1.9973-4.4939 1.9973-10.785 0-6.2915-3.2956-13.082-3.2955-6.7908-7.8893-12.883-7.7895-10.386-13.682-19.274-5.7922-8.888-9.0877-17.476-3.1957-8.5884-3.1957-17.976 0-7.39 1.8974-13.582 1.8974-6.2915 5.4926-10.885 3.695-4.6937 8.888-7.2901 5.193-2.5965 11.884-2.5965 8.2888 0 13.981 2.7962 5.7922 2.7962 9.2874 7.9892 3.5951 5.193 5.193 12.383 1.6977 7.0904 1.6977 15.779l-21.171 1.9973q0-3.695-0.39946-7.39-0.2996-3.7949-1.1984-6.8907-0.89879-3.0958-2.5965-4.9932-1.6977-1.8974-4.3941-1.8974-4.1943 0-5.7922 3.5951-1.5978 3.4953-1.5978 9.9865 0 8.3887 4.4939 16.178 4.4939 7.7895 12.084 18.175 9.0877 12.283 14.78 22.569 5.7922 10.286 5.7922 22.769 0 7.8893-1.6977 14.68-1.6977 6.691-5.3927 11.684-3.5951 4.9932-9.2874 7.7895-5.5924 2.7962-13.582 2.7962z"/>
  <path d="m414.12 149.8v-21.171q1.3981 0.19973 2.0972 0.19973 4.4939 0 6.9906-2.7962 2.4966-2.8961 2.4966-8.1889v-116.24h21.571v119.64q0 9.4872-3.4953 15.879-3.3954 6.3914-9.9865 9.587t-15.978 3.1957q-0.89878 0-1.7976 0-0.89878 0-1.8974-0.0999z"/>
 </g>
</svg>
